<?xml version="1.0" encoding="UTF-8"?>
<svg version="1.1" xmlns="http://www.w3.org/2000/svg" width="1448" height="1086">
<path d="M0 0 C477.84 0 955.68 0 1448 0 C1448 358.38 1448 716.76 1448 1086 C970.16 1086 492.32 1086 0 1086 C0 727.62 0 369.24 0 0 Z " fill="#F9F9F9" transform="translate(0,0)"/>
<path d="M0 0 C1.23861737 -0.00497769 2.47723473 -0.00995538 3.75338596 -0.01508391 C7.19375333 -0.02384401 10.63271482 -0.01012402 14.07292879 0.01301455 C17.78188989 0.03252794 21.49079107 0.02321638 25.19978333 0.01742554 C32.46619252 0.01060126 39.73230221 0.03028882 46.99865002 0.05858882 C55.45577442 0.09039926 63.91284561 0.09483741 72.37002122 0.09778075 C87.45629563 0.10384838 102.54243578 0.13298474 117.62864685 0.1758728 C132.27708702 0.21748041 146.92546422 0.2458071 161.57395935 0.25790405 C162.47627191 0.25865227 163.37858446 0.25940048 164.30823983 0.26017137 C167.9348261 0.26314551 171.56141239 0.2660828 175.18799875 0.26895765 C190.81808842 0.28168632 206.44816397 0.30544663 222.07823786 0.33059591 C224.61187399 0.33457891 227.14551038 0.33829712 229.67914701 0.34194994 C238.54715284 0.3549658 247.41513371 0.3712806 256.28311295 0.39693435 C259.9512706 0.40753258 263.61941416 0.41663553 267.2875843 0.42150497 C271.25815221 0.42687761 275.22867157 0.44003597 279.19921875 0.45410156 C280.36670908 0.45459932 281.53419941 0.45509708 282.73706824 0.45560992 C283.79604345 0.46068446 284.85501866 0.465759 285.94608402 0.47098732 C287.32178597 0.47448328 287.32178597 0.47448328 288.72527987 0.47804987 C291.03611755 0.60800171 291.03611755 0.60800171 294.03611755 1.60800171 C294.03611755 2.26800171 294.03611755 2.92800171 294.03611755 3.60800171 C294.69611755 3.60800171 295.35611755 3.60800171 296.03611755 3.60800171 C297.97321393 6.86554095 298.27327201 9.26410099 298.23143005 13.02987671 C298.22498474 14.0546814 298.21853943 15.07948608 298.2118988 16.13534546 C298.19514099 17.19882202 298.17838318 18.26229858 298.16111755 19.35800171 C298.15209412 20.43694702 298.14307068 21.51589233 298.1337738 22.62753296 C298.1102306 25.28791448 298.07734554 27.94784507 298.03611755 30.60800171 C298.640849 30.34583862 299.24558044 30.08367554 299.86863708 29.81356812 C302.63168733 28.61746308 305.39638081 27.425203 308.16111755 26.23300171 C309.11244568 25.82050171 310.0637738 25.40800171 311.04393005 24.98300171 C326.6979392 18.2430811 326.6979392 18.2430811 335.03611755 19.60800171 C338.15560274 21.29641522 340.42691707 23.38960074 342.03611755 26.60800171 C342.26318928 28.66314454 342.39515578 30.72934166 342.47361755 32.79550171 C342.53420349 33.9028064 342.59478943 35.01011108 342.6572113 36.15097046 C341.79149426 40.96958421 339.77536807 43.51203264 336.03611755 46.60800171 C332.86622753 48.45151622 329.57811646 49.79030272 326.16111755 51.10800171 C324.43404606 51.80465785 322.70749958 52.50261672 320.98143005 53.20175171 C319.68750839 53.71735657 319.68750839 53.71735657 318.3674469 54.24337769 C314.43809503 55.85297175 310.55127773 57.54904779 306.66453552 59.25839233 C305.9282341 59.5814032 305.19193268 59.90441406 304.43331909 60.23721313 C302.63392217 61.02672489 300.8349736 61.81725836 299.03611755 62.60800171 C299.03025131 63.79578217 299.02438507 64.98356262 299.01834106 66.20733643 C298.96079503 77.47442468 298.88787102 88.7413258 298.80040264 100.00822258 C298.75592906 105.79879199 298.71662401 111.58929474 298.68968201 117.37997437 C298.66341723 122.98224861 298.62285631 128.58426311 298.57293129 134.18637466 C298.55641765 136.30943665 298.54480798 138.4325434 298.53850365 140.55566025 C298.45773499 165.28653527 295.98977563 187.6827357 278.59861755 206.79550171 C272.35562455 212.79068125 264.90653371 216.23159952 257.03611755 219.60800171 C255.88333313 220.11714111 255.88333313 220.11714111 254.70726013 220.63656616 C248.48454176 223.27719856 242.36681408 224.85036055 235.72361755 226.04550171 C234.60060242 226.24941528 233.47758728 226.45332886 232.32054138 226.66342163 C220.67596377 228.66541822 208.95898874 230.07009786 197.22361755 231.42050171 C196.28819122 231.53159271 195.35276489 231.64268372 194.38899231 231.75714111 C183.85288726 232.99458491 173.38730448 233.82503146 162.7743988 233.93222046 C161.8275975 233.9491243 160.8807962 233.96602814 159.90530396 233.98344421 C159.0336409 233.98160629 158.16197784 233.97976837 157.26390076 233.97787476 C156.49391251 233.97966232 155.72392426 233.98144989 154.93060303 233.98329163 C154.30542282 233.85944595 153.68024261 233.73560028 153.03611755 233.60800171 C150.94796386 230.47577117 150.75913935 229.57527356 150.62205505 225.97909546 C150.58322205 225.03880493 150.54438904 224.0985144 150.50437927 223.12973022 C150.47360291 222.11193481 150.44282654 221.0941394 150.41111755 220.04550171 C150.37389587 218.99225708 150.33667419 217.93901245 150.29832458 216.85385132 C150.04079644 208.7939324 149.93546013 200.73427081 149.91111755 192.67050171 C149.9064447 191.60049927 149.90177185 190.53049683 149.8969574 189.42807007 C149.93328201 171.70305527 149.93328201 171.70305527 155.03611755 165.60800171 C158.33650812 162.78950179 161.73264095 160.54421782 165.47361755 158.35800171 C175.11542023 152.2623117 181.32998984 141.65802319 184.03611755 130.60800171 C185.06499399 123.94423221 185.15557018 117.21274815 185.22361755 110.48300171 C185.23666931 109.7434021 185.24972107 109.00380249 185.26316833 108.24179077 C185.27162836 102.78628215 184.38673787 97.8804275 183.03611755 92.60800171 C182.77858704 91.52591431 182.77858704 91.52591431 182.51585388 90.42196655 C178.14711696 72.25732569 170.29982182 55.68314287 154.91111755 44.29550171 C147.90409114 40.18268186 141.31929887 39.31051453 133.37986755 41.26034546 C122.87976288 45.03584606 116.87887492 52.42438564 111.03611755 61.60800171 C110.33486755 62.70112671 109.63361755 63.79425171 108.91111755 64.92050171 C105.99567866 70.18588489 104.12955633 75.98277506 102.03611755 81.60800171 C101.6906488 82.41237671 101.34518005 83.21675171 100.98924255 84.04550171 C94.34581671 101.90651546 94.33940952 124.26803448 102.03611755 141.60800171 C102.33518005 142.39046265 102.63424255 143.17292358 102.94236755 143.97909546 C106.95667836 153.51308364 115.32133149 159.26322255 124.3368988 163.61190796 C128.11505572 166.40588507 129.73156502 169.10625166 131.03611755 173.60800171 C131.55357979 178.01776063 131.50713086 182.36105437 131.41111755 186.79550171 C131.39605164 188.04895386 131.38098572 189.30240601 131.36546326 190.59384155 C131.20365352 199.98347927 130.79134301 209.35963013 130.22361755 218.73300171 C130.15384705 219.97718872 130.08407654 221.22137573 130.01219177 222.50326538 C129.93114197 223.65415649 129.85009216 224.80504761 129.7665863 225.99081421 C129.69850769 227.00546753 129.63042908 228.02012085 129.56028748 229.06552124 C128.96230605 231.9660236 128.50063856 232.98082316 126.03611755 234.60800171 C123.80418396 234.92025757 123.80418396 234.92025757 121.13768005 234.82284546 C120.11972351 234.788927 119.10176697 234.75500854 118.05296326 234.72006226 C116.93365417 234.66245728 115.81434509 234.60485229 114.66111755 234.54550171 C113.48444519 234.49240845 112.30777283 234.43931519 111.09544373 234.38461304 C90.11352195 233.28570803 69.08027655 230.9396449 48.34861755 227.54550171 C47.43056335 227.39556763 46.51250916 227.24563354 45.56663513 227.09115601 C27.19749543 223.87668569 10.29539757 216.22074685 -1.7177887 201.45175171 C-3.2624057 199.22556741 -4.63193752 196.96744701 -5.96388245 194.60800171 C-6.73345276 193.28542358 -6.73345276 193.28542358 -7.51856995 191.93612671 C-16.17015814 176.0103176 -16.56656887 160.19082656 -16.57325745 142.51425171 C-16.58826875 140.22782233 -16.60500198 137.94140368 -16.62336731 135.65499878 C-16.66672174 129.69082083 -16.68696864 123.72678908 -16.70210266 117.76248169 C-16.72178969 111.65491199 -16.76374604 105.54749756 -16.8037262 99.44003296 C-16.87868208 87.49607081 -16.92918228 75.55214399 -16.96388245 63.60800171 C-19.34127768 62.48978252 -21.71956887 61.37354108 -24.09840393 60.25839233 C-25.09805302 59.78783417 -25.09805302 59.78783417 -26.11789703 59.30776978 C-29.9777938 57.50038418 -33.85417077 55.78876266 -37.8115387 54.20175171 C-39.11961487 53.67388062 -39.11961487 53.67388062 -40.45411682 53.13534546 C-42.19932239 52.43832334 -43.94956655 51.75381146 -45.70411682 51.08065796 C-51.48668099 48.71565419 -55.75303011 46.11670416 -58.96388245 40.60800171 C-59.62013245 37.69393921 -59.62013245 37.69393921 -59.46388245 34.98300171 C-59.43294495 34.08323608 -59.40200745 33.18347046 -59.37013245 32.25643921 C-58.58383 27.13035209 -56.93510317 23.75667564 -52.7099762 20.56503296 C-49.40994779 18.75629256 -46.51359458 18.88416155 -42.96388245 19.60800171 C-35.68119974 21.89258207 -28.81261003 25.00733069 -22.0849762 28.59237671 C-20.03837004 29.57233546 -18.1639018 30.09373388 -15.96388245 30.60800171 C-15.98482971 29.87686157 -16.00577698 29.14572144 -16.02735901 28.39242554 C-16.11068558 25.0685917 -16.16259576 21.74497787 -16.21388245 18.42050171 C-16.24739807 17.27001343 -16.2809137 16.11952515 -16.31544495 14.93417358 C-16.32833557 13.82235718 -16.3412262 12.71054077 -16.35450745 11.56503296 C-16.37545471 10.54385376 -16.39640198 9.52267456 -16.41798401 8.47055054 C-14.9164465 -0.99478674 -7.86010024 -0.09363973 0 0 Z " fill="#661E22" transform="translate(210.96388244628906,480.3919982910156)"/>
<path d="M0 0 C4.30391603 0.10876322 6.96070027 1.30049707 10.09765625 4.23828125 C12.76234671 8.82611223 11.85282643 14.32551567 11.375 19.4375 C11.89449219 18.97859375 12.41398438 18.5196875 12.94921875 18.046875 C14.39650799 16.77347449 15.84858259 15.50549803 17.3046875 14.2421875 C18.78379907 12.95284874 20.24269003 11.64016322 21.6875 10.3125 C32.21358706 2.96871833 42.99597965 1.29330237 55.5 1.1875 C56.34747803 1.17807373 57.19495605 1.16864746 58.06811523 1.15893555 C69.59955287 1.21856733 81.0672244 5.1297244 89.375 13.4375 C91.8172853 16.70076493 94.12478698 20.03948379 96.375 23.4375 C99.39101787 22.12200284 101.04151709 20.87532832 103 18.25 C110.88289108 8.71904857 122.37357996 3.42445857 134.375 1.4375 C150.49852225 0.0615178 163.04372472 1.893762 176.375 11.4375 C177.4475 12.18 178.52 12.9225 179.625 13.6875 C198.8924433 32.9549433 196.87861862 62.56226002 197.45898438 87.70019531 C197.19457291 114.20745417 197.19457291 114.20745417 206.375 138.4375 C207.303125 139.30375 208.23125 140.17 209.1875 141.0625 C211.52121801 143.59625098 211.78929808 144.21907008 212 147.5 C211.375 151.4375 211.375 151.4375 209.4375 153.6875 C202.45630779 157.67675269 196.45688671 160.17106417 188.375 160.4375 C187.38886719 160.47617187 187.38886719 160.47617187 186.3828125 160.515625 C173.2816623 160.97531448 162.51208081 160.72254169 152.375 151.4375 C147.52228005 146.75327727 144.71737336 141.72996662 142.375 135.4375 C142.03254242 134.54690887 141.69008484 133.65631775 141.33724976 132.73873901 C140.27759768 129.10333692 140.12348454 126.09244531 140.11962891 122.30908203 C140.11419823 121.27830284 140.11419823 121.27830284 140.10865784 120.22669983 C140.10179538 118.74210048 140.09925246 117.25747607 140.10060501 115.77286148 C140.10157823 113.40706976 140.08853002 111.04172268 140.07162476 108.67599487 C140.02562652 101.95200132 140.00081124 95.22805188 139.99414062 88.50390625 C139.98906464 84.3794623 139.96450432 80.25547816 139.92881393 76.13119125 C139.91914693 74.57585311 139.91661066 73.0204506 139.92198563 71.46509171 C139.96143236 59.47636802 138.17296117 48.83138352 134.375 37.4375 C132.59271064 36.29540183 132.59271064 36.29540183 130.375 35.4375 C129.611875 35.06625 128.84875 34.695 128.0625 34.3125 C123.12091898 32.70361316 119.57033898 32.96348627 114.75 34.875 C109.93097777 37.91402303 107.18999542 43.18927296 105.82698059 48.62167358 C105.27715275 52.04708563 105.22415826 55.33693275 105.19799805 58.80712891 C105.18814125 59.89362732 105.18814125 59.89362732 105.17808533 61.0020752 C105.15844379 63.38940556 105.14670825 65.77667318 105.13671875 68.1640625 C105.13264322 68.98422222 105.1285677 69.80438194 105.12436867 70.64939499 C105.10354365 74.9933115 105.08922835 79.33719679 105.07983398 83.68115234 C105.06879616 88.14286367 105.03441665 92.60407266 104.99466228 97.06560707 C104.96837512 100.51798356 104.96013134 103.97024268 104.95655251 107.42271042 C104.95171525 109.06597651 104.94018403 110.70923839 104.92151451 112.35240555 C104.8011119 123.65470603 105.70137942 133.09477683 112.125 142.75 C114.34914481 146.12408965 115.19781645 148.32341776 114.375 152.4375 C112.57506226 155.13740662 111.291227 156.9793865 108.375 158.4375 C106.30326334 158.55475495 104.2277558 158.60728726 102.15283203 158.63037109 C100.84452423 158.64643402 99.53621643 158.66249695 98.18826294 158.67904663 C96.75311938 158.69053223 95.31796858 158.70114108 93.8828125 158.7109375 C92.80082895 158.71892302 92.80082895 158.71892302 91.69698715 158.72706985 C87.87987073 158.75379303 84.06278694 158.77317151 80.24560547 158.78759766 C76.30198548 158.80425455 72.35919977 158.84904176 68.41589546 158.8999691 C65.38413526 158.93361248 62.35257395 158.94517166 59.32064438 158.95082474 C57.86693817 158.95754417 56.41324536 158.97278454 54.95972061 158.99671555 C52.92536184 159.02830148 50.89055621 159.02540704 48.85595703 159.02099609 C47.69838898 159.02908295 46.54082092 159.0371698 45.34817505 159.04550171 C42.375 158.4375 42.375 158.4375 40.00534058 156.04141235 C37.55435918 152.12680652 37.43778167 148.91532093 38.375 144.4375 C40.625 141.5625 40.625 141.5625 42.00682068 140.1096344 C48.76542626 131.84953522 47.94946155 120.41761085 47.87109375 110.37890625 C47.87124914 108.74185624 47.87274465 107.10480587 47.87550354 105.46775818 C47.87688031 102.05280092 47.86445315 98.63826731 47.84155273 95.22338867 C47.81319291 90.87854178 47.81590902 86.53439864 47.82864285 82.18949986 C47.83564818 78.81339159 47.82775546 75.4374417 47.81538582 72.06135368 C47.81091669 70.460821 47.8104941 68.86027104 47.81445122 67.25973701 C48.12688475 51.39146401 48.12688475 51.39146401 41.9375 37.3125 C37.18860469 33.83769855 34.41878111 32.83312189 28.375 33.4375 C22.58957734 35.17532658 19.42131605 37.99182418 16.3828125 43.14453125 C13.91653561 48.75578913 13.1201105 53.95228221 13.08447266 60.05004883 C13.07775543 60.77627945 13.07103821 61.50251007 13.06411743 62.25074768 C13.04524742 64.63208006 13.04121882 67.01312893 13.0390625 69.39453125 C13.03262677 71.06451021 13.02589785 72.73448806 13.01889038 74.40446472 C13.00694498 77.89865734 13.00320671 81.39275131 13.00439453 84.88696289 C13.00459753 89.34202637 12.97730333 93.79645058 12.94285011 98.2513628 C12.92050089 101.69942574 12.91655944 105.14733679 12.91761398 108.59546471 C12.91526978 110.23675424 12.90651356 111.87804872 12.89094925 113.51926613 C12.79876582 124.243751 13.27212831 133.35899338 20.125 142.125 C22.11137697 144.73865391 22.39989704 145.59794762 22.9375 149.0625 C22.28462152 152.97977085 21.15843501 154.65406499 18.375 157.4375 C15.56949625 158.84025187 13.21516477 158.59589732 10.0769043 158.63037109 C9.10827957 158.64263733 9.10827957 158.64263733 8.12008667 158.65515137 C5.97980679 158.67999426 3.83959321 158.6965188 1.69921875 158.7109375 C0.96811197 158.71626118 0.2370052 158.72158485 -0.51625633 158.72706985 C-4.38639655 158.7537973 -8.25650457 158.77317298 -12.12670898 158.78759766 C-16.12179252 158.80424045 -20.11605028 158.8490148 -24.11082172 158.8999691 C-27.1846561 158.93364614 -30.25829461 158.94517547 -33.33229637 158.95082474 C-34.80471288 158.95753661 -36.27711653 158.97275738 -37.74935341 158.99671555 C-39.81315753 159.02838279 -41.87473684 159.02840361 -43.9387207 159.02099609 C-45.69838921 159.03312637 -45.69838921 159.03312637 -47.49360657 159.04550171 C-51.57708403 158.25264021 -53.05699735 156.63991572 -55.625 153.4375 C-56.94682428 148.04005084 -55.09635364 145.19295072 -52.3125 140.5 C-51.69761719 139.54222656 -51.08273437 138.58445312 -50.44921875 137.59765625 C-45.13141424 128.38544245 -45.13543628 120.01241814 -45.12109375 109.671875 C-45.11143547 108.03053535 -45.10134176 106.38919821 -45.09083557 104.74786377 C-45.07293067 101.31508405 -45.06730857 97.88253011 -45.0690918 94.44970703 C-45.06939606 90.08084454 -45.02847722 85.71345146 -44.97677517 81.34493637 C-44.94318556 77.95594826 -44.93734111 74.56730667 -44.93892097 71.17816925 C-44.9354136 69.56920568 -44.92233057 67.96022992 -44.89892387 66.3514328 C-44.766578 56.3146894 -45.58033395 47.91268582 -51.625 39.4375 C-53.53799731 37.62117009 -53.53799731 37.62117009 -55.4375 36.25 C-58.35629243 34.05277986 -59.25157384 32.49680914 -59.875 28.875 C-60.27545339 25.5712595 -59.7548189 24.61023645 -57.72265625 21.90625 C-53.69548999 18.69670514 -49.63474032 17.19921615 -44.8125 15.5 C-43.88050781 15.15936523 -42.94851563 14.81873047 -41.98828125 14.46777344 C-40.09608297 13.77634345 -38.20204354 13.08993021 -36.30615234 12.40869141 C-33.90866313 11.54025104 -31.52445127 10.64573933 -29.14453125 9.73046875 C-21.83969767 6.92225494 -14.52167107 4.38536631 -7.00390625 2.19921875 C-0.21759259 0.02626117 -0.21759259 0.02626117 0 0 Z " fill="#671E22" transform="translate(663.625,565.5625)"/>
<path d="M0 0 C3.4860343 3.40917165 4.83546345 4.9506823 5.60127258 9.83456421 C5.61562497 11.292514 5.60278892 12.75089971 5.56762695 14.20849609 C5.56835709 15.00916504 5.56908722 15.80983398 5.56983948 16.63476562 C5.56637309 19.26502698 5.52755941 21.89348794 5.48828125 24.5234375 C5.47894969 26.35331251 5.4718352 28.18320005 5.46684265 30.01309204 C5.44779978 34.81710618 5.39872258 39.62035817 5.34332275 44.42407227 C5.2920716 49.33078706 5.2693161 54.23762564 5.24414062 59.14453125 C5.19060104 68.76335473 5.10532126 78.38161386 5 88 C5.66 88 6.32 88 7 88 C7.22558594 87.4225 7.45117188 86.845 7.68359375 86.25 C11.8336561 79.15671836 21.48465231 74.73531574 29 72 C29.87914062 71.64550781 30.75828125 71.29101562 31.6640625 70.92578125 C43.62682839 67.6059036 57.15708849 69.20994668 68 75 C68.82757812 75.43441406 69.65515625 75.86882812 70.5078125 76.31640625 C81.37452942 82.78118191 88.03740032 94.16428075 91.6875 106 C95.79182677 123.09667622 95.54729969 141.09873554 96.02905273 158.5703125 C95.60037093 180.57074687 95.60037093 180.57074687 104 200 C104.928125 200.804375 105.85625 201.60875 106.8125 202.4375 C109 205 109 205 109.1875 208.5625 C107.64993124 213.01335695 106.16008617 213.88213795 102 216 C90.80987581 221.14514989 74.81872818 222.28399337 63 218.5 C54.06328154 214.62923289 47.66275604 207.95829386 44 199 C41.27066213 189.92985615 40.54837794 181.23588707 40.5234375 171.80859375 C40.49962518 169.81076755 40.47580903 167.8129414 40.4517765 165.81511784 C40.42209507 163.0533 40.40545372 160.29146299 40.38873291 157.52954102 C40.35697608 152.69177569 40.30542306 147.85418818 40.25234985 143.01661682 C40.22553021 140.45330497 40.20400918 137.88992994 40.18881226 135.32652283 C40.68789229 118.23164623 40.68789229 118.23164623 33.5546875 103.34765625 C30.09061368 100.34487869 25.84236576 100.66344672 21.5 100.7265625 C17.05275157 101.2129803 14.53567447 103.31033031 11.59765625 106.54296875 C4.93574138 114.98139425 5.68805205 125.10837769 5.69921875 135.33984375 C5.69532426 136.83142718 5.69098806 138.32300952 5.68623352 139.81459045 C5.67880215 142.9303854 5.67904027 146.04606697 5.68432617 149.16186523 C5.69011982 153.13376392 5.67317764 157.10519614 5.6499815 161.07701778 C5.63517554 164.15445114 5.63438168 167.23177386 5.63749123 170.30923653 C5.63698156 171.77271003 5.63181117 173.23619031 5.62167931 174.69962883 C5.55534239 185.61873202 6.36919614 194.01633026 13 203 C15.50031654 206.75047482 15.53603554 208.55856266 15 213 C12.51232933 216.13189448 10.99618735 217.78901645 7.03392029 218.62818909 C5.38988976 218.62963173 5.38988976 218.62963173 3.71264648 218.63110352 C2.46462753 218.64363663 1.21660858 218.65616974 -0.06922913 218.66908264 C-1.4224655 218.65681522 -2.77569184 218.64339534 -4.12890625 218.62890625 C-5.524655 218.62973546 -6.92040364 218.63219681 -8.31614685 218.63621521 C-11.23572317 218.63906862 -14.15453036 218.62441684 -17.07397461 218.59692383 C-20.81241677 218.56280838 -24.5494871 218.5688731 -28.28799534 218.5875864 C-31.16801858 218.59816369 -34.04772355 218.58921286 -36.92771721 218.57420158 C-38.3059895 218.56902667 -39.68429512 218.56949323 -41.06256294 218.57574654 C-42.98909949 218.58120763 -44.9156526 218.55795345 -46.84204102 218.53344727 C-48.48487816 218.5241494 -48.48487816 218.5241494 -50.16090393 218.5146637 C-53.67641533 217.87738125 -54.82530336 216.78310806 -57 214 C-58.1875 210.875 -58.1875 210.875 -58 207 C-56.49754028 204.48445316 -54.82836427 202.26910392 -52.95703125 200.015625 C-47.29677843 191.29363862 -46.42004734 182.61173175 -46.51416016 172.42553711 C-46.51036346 171.11350815 -46.50656677 169.80147919 -46.50265503 168.44969177 C-46.49304569 164.88347975 -46.50815791 161.31777634 -46.52856112 157.75162578 C-46.54627002 154.00072966 -46.54260437 150.24984604 -46.5418396 146.49891663 C-46.54370642 140.20386362 -46.56098657 133.90900468 -46.58837891 127.61401367 C-46.61983671 120.35839397 -46.63037421 113.10298632 -46.6289078 105.84730333 C-46.62755204 98.08859029 -46.64145878 90.32995785 -46.65980101 82.57126927 C-46.66404294 80.35008574 -46.66548052 78.1289154 -46.66627884 75.9077282 C-46.66867957 71.7534086 -46.68817552 67.59933404 -46.70947266 63.44506836 C-46.7081131 61.61736908 -46.7081131 61.61736908 -46.70672607 59.75274658 C-46.79735088 47.61795717 -48.23207717 38.72924331 -56.25 29.375 C-58.37043657 26.49726465 -58.84871166 24.55527603 -59 21 C-58.4375 18.8125 -58.4375 18.8125 -57 17 C-54.1875 15.375 -54.1875 15.375 -51 14 C-50.236875 13.649375 -49.47375 13.29875 -48.6875 12.9375 C-46 12 -46 12 -42.1875 11.1875 C-32.70859554 9.16533372 -23.39547482 6.16346821 -14.5625 2.1875 C-9.95443366 0.22155865 -4.93137133 -1.8457148 0 0 Z " fill="#661E22" transform="translate(794,297)"/>
<path d="M0 0 C1.30219482 -0.01466309 2.60438965 -0.02932617 3.94604492 -0.04443359 C22.63154456 0.15221847 37.03513507 6.9889253 49.90722656 20.10839844 C57.02547767 27.81681728 59.5840918 36.85656297 59.39453125 47.14453125 C58.83237263 56.54929306 56.09651859 64.49180324 49.4765625 71.41796875 C47.78250199 72.91599169 46.10813052 74.27424968 44.25 75.5625 C43.50621094 76.10261719 42.76242187 76.64273438 41.99609375 77.19921875 C36.24732079 80.05316151 28.15607402 79.35027963 21.92578125 78.09375 C16.9333563 76.20896935 12.87836609 72.21634231 10.12109375 67.72265625 C8.26126765 63.11062111 8.34706185 58.3979714 9.25 53.5625 C11.02066947 50.60870138 12.96262502 48.23709676 15.3046875 45.71875 C19.09894549 41.51306644 19.58276745 38.3274903 19.4375 32.81640625 C19.1833824 29.76170088 18.595481 27.32073605 17.25 24.5625 C15.36629529 23.2455333 15.36629529 23.2455333 13.25 22.5625 C12.26 21.9025 11.27 21.2425 10.25 20.5625 C3.51278093 19.6142988 -2.41627184 19.84276601 -8 23.9375 C-15.00172598 30.43910269 -18.27607488 37.51004279 -18.9140625 47.00390625 C-19.34777004 60.86283362 -14.45774221 71.37640288 -5.4375 81.6875 C-3.89285718 83.3294835 -2.33076215 84.95525942 -0.75 86.5625 C-0.07324219 87.25214844 0.60351562 87.94179688 1.30078125 88.65234375 C6.98531494 94.05853869 13.42856115 97.88422968 20.1875 101.77734375 C23.25 103.5625 23.25 103.5625 24.25 104.5625 C24.93970167 111.44435845 23.35423268 115.15448187 19.5625 120.8125 C19.12744141 121.50601563 18.69238281 122.19953125 18.24414062 122.9140625 C15.71525056 126.82541247 13.32243747 130.13530225 9.25 132.5625 C4.42806382 133.28389203 1.84223803 132.12498383 -2.125 129.4375 C-3.06988281 128.80457031 -4.01476563 128.17164063 -4.98828125 127.51953125 C-8.11990157 125.30037739 -11.18881357 123.01974408 -14.19140625 120.62890625 C-15.71035222 119.37427203 -15.71035222 119.37427203 -17.75 119.5625 C-17.8428394 133.21041779 -17.913836 146.85825995 -17.95724869 160.50642967 C-17.97808869 166.84440674 -18.00634131 173.18216714 -18.05175781 179.52001953 C-18.09534271 185.64084619 -18.11916407 191.76146493 -18.12950897 197.88243484 C-18.1368776 200.21313371 -18.15126669 202.54382169 -18.17292023 204.87443161 C-18.20212152 208.14879351 -18.20594892 211.42230537 -18.20410156 214.69677734 C-18.21848267 215.65200287 -18.23286377 216.60722839 -18.24768066 217.59140015 C-18.19825512 225.73194958 -16.17114831 232.79314492 -11 239.1875 C-9.08613779 241.7076167 -8.32640979 243.51233388 -8.125 246.6875 C-8.70421485 250.27863207 -9.12614891 252.07808147 -11.79077148 254.54119873 C-16.58921013 257.04251567 -22.55609847 256.27146664 -27.84375 256.2265625 C-29.23710554 256.22993353 -30.6304582 256.23478854 -32.02380371 256.24105835 C-34.93916922 256.24841645 -37.85376697 256.23776031 -40.76904297 256.21435547 C-44.49860493 256.18586611 -48.22636794 256.20227611 -51.95586395 256.23221779 C-54.83165952 256.25032085 -57.70703135 256.24451946 -60.58283997 256.23157883 C-61.95750646 256.22825301 -63.33221193 256.23230295 -64.70683289 256.24397659 C-76.78407443 256.32404148 -76.78407443 256.32404148 -80.08789062 253.19677734 C-82.22122755 249.8156514 -82.59825154 248.49530259 -81.75 244.5625 C-80.39720561 242.60517562 -78.95889248 240.8359525 -77.35546875 239.078125 C-71.88100473 230.50013272 -72.35582825 220.65763328 -72.47290039 210.85766602 C-72.48030863 209.29098586 -72.48631704 207.72429857 -72.49104309 206.15760803 C-72.50385356 202.79969257 -72.52588404 199.44201248 -72.55507088 196.08419991 C-72.6007316 190.75602729 -72.62187325 185.42792384 -72.63926697 180.09959412 C-72.68617209 166.86002489 -72.76322893 153.62065178 -72.84979248 140.38128662 C-72.91679811 130.09648136 -72.9744776 119.81180555 -73.00434297 109.52681679 C-73.01802525 105.10685291 -73.03974795 100.68725529 -73.08122444 96.26745796 C-73.58517992 41.690098 -73.58517992 41.690098 -54.03125 21.734375 C-53.2784375 21.01765625 -52.525625 20.3009375 -51.75 19.5625 C-51.0178125 18.84578125 -50.285625 18.1290625 -49.53125 17.390625 C-34.97550146 3.7574239 -19.45253369 0.11278172 0 0 Z " fill="#661D22" transform="translate(1135.75,259.4375)"/>
<path d="M0 0 C18.06229697 15.88776342 23.66349515 36.47838195 25.3515625 60.0546875 C25.79361281 68.36549915 25.95175432 76.69107733 26.02490234 85.01245117 C26.10201096 92.80672321 26.326798 100.54286563 27.125 108.30078125 C27.21547104 109.31955101 27.21547104 109.31955101 27.30776978 110.35890198 C27.95354711 115.88745001 29.80443067 121.02526539 34.2734375 124.5859375 C34.87671875 124.905625 35.48 125.2253125 36.1015625 125.5546875 C39.13495774 127.54208438 39.28181025 127.72917702 40.1015625 131.5546875 C39.4005314 134.82616597 38.84512323 136.65768079 36.30078125 138.859375 C24.07484089 146.35664504 8.56163386 148.02806264 -5.3671875 145.3359375 C-15.6677375 142.40642328 -20.15499252 138.48322033 -25.546875 129.26171875 C-26.6484375 127.0546875 -26.6484375 127.0546875 -26.6484375 125.0546875 C-27.17953125 125.52519531 -27.710625 125.99570312 -28.2578125 126.48046875 C-29.31742188 127.41439453 -29.31742188 127.41439453 -30.3984375 128.3671875 C-31.09453125 128.98207031 -31.790625 129.59695313 -32.5078125 130.23046875 C-34.50936469 131.93617108 -36.46683232 133.58507062 -38.6484375 135.0546875 C-41.65232382 134.78963871 -42.48148025 134.22164475 -44.6484375 132.0546875 C-45.48026909 128.58131437 -45.52016724 125.52072672 -44.6484375 122.0546875 C-42.5803477 119.87865982 -40.39862543 118.36731377 -37.91015625 116.6953125 C-33.21358484 113.28847313 -31.17419394 108.15391782 -29.96484375 102.54296875 C-28.6011217 91.81838914 -28.46148766 79.98619977 -34.8984375 70.8671875 C-38.50188318 68.49218921 -40.39379024 68.4678396 -44.6484375 69.0546875 C-51.95564116 71.27294576 -56.3471075 75.44048422 -60.421875 81.83984375 C-64.99880715 90.5102293 -65.95306305 98.40652647 -64.6484375 108.0546875 C-62.99900933 113.08224097 -60.90139745 116.79710116 -56.6484375 120.0546875 C-53.36943262 121.3069455 -50.06038664 122.23979479 -46.6484375 123.0546875 C-46.56724247 125.30409045 -46.50915931 127.55433621 -46.4609375 129.8046875 C-46.42613281 131.05765625 -46.39132812 132.310625 -46.35546875 133.6015625 C-46.66856777 137.29195629 -46.95997643 138.57347397 -49.6484375 141.0546875 C-52.171875 142.28515625 -52.171875 142.28515625 -55.0234375 143.2421875 C-55.95929687 143.56574219 -56.89515625 143.88929688 -57.859375 144.22265625 C-63.13229622 145.79567056 -68.03147879 146.23705483 -73.5234375 146.2421875 C-74.20535156 146.25443359 -74.88726563 146.26667969 -75.58984375 146.27929688 C-80.27010902 146.29266906 -84.16501623 145.5351615 -88.6484375 144.0546875 C-89.586875 143.75949219 -90.5253125 143.46429687 -91.4921875 143.16015625 C-102.34587464 139.40924966 -109.42355427 134.01898601 -114.90625 123.68359375 C-115.90401536 121.49220539 -116.8164544 119.31405394 -117.6484375 117.0546875 C-118.00421875 116.12140625 -118.36 115.188125 -118.7265625 114.2265625 C-121.86560953 103.42611256 -119.68423637 92.84581037 -114.6484375 83.0546875 C-104.68042479 65.64158341 -88.76040498 59.0591831 -70.2109375 53.9296875 C-65.71871895 52.73258995 -61.25230766 51.78019437 -56.6484375 51.1171875 C-50.39149898 50.18802361 -44.64215257 48.1802199 -38.703125 46.078125 C-35.6484375 45.0546875 -35.6484375 45.0546875 -33.6484375 45.0546875 C-33.730684 41.7621012 -33.84338393 38.47118738 -33.9609375 35.1796875 C-33.98349609 34.261875 -34.00605469 33.3440625 -34.02929688 32.3984375 C-34.3258945 24.74082599 -35.15555979 17.20358565 -40.0234375 11.0546875 C-45.55875546 6.83730239 -50.80817473 6.17035446 -57.6484375 7.0546875 C-61.67934044 8.55335654 -64.23073401 10.42813227 -66.6484375 14.0546875 C-66.94980709 16.2444393 -66.94980709 16.2444393 -66.921875 18.66015625 C-66.9425 19.56185547 -66.963125 20.46355469 -66.984375 21.39257812 C-67.01014772 23.27269819 -67.02853616 25.15293589 -67.0390625 27.03320312 C-67.23553282 34.72283302 -69.12827599 39.81447984 -73.8359375 45.8671875 C-80.30297107 50.8971025 -87.49477772 51.72199105 -95.55078125 51.54296875 C-101.25385413 50.64399761 -104.62972646 47.46122973 -108.234375 43.1640625 C-113.10624408 35.89663348 -112.56942866 26.76483269 -111.21875 18.390625 C-108.19758699 7.83520361 -99.8779755 0.39632487 -90.6484375 -4.9453125 C-63.539151 -18.29621009 -24.12595789 -20.10712557 0 0 Z " fill="#671E23" transform="translate(999.6484375,579.9453125)"/>
<path d="M0 0 C10.16960617 8.78836115 19.25507582 20.90984596 20.2734375 34.73046875 C20.51560907 43.36792138 19.57541445 50.53340257 15.1171875 58.01171875 C4.37550739 69.26038082 -17.16752164 72.40003924 -31.9453125 74.69921875 C-36.38002111 75.41033995 -40.357013 76.50408523 -44.56640625 78.03125 C-49.24363079 79.4674421 -54.11161124 80.06651637 -58.9453125 80.76171875 C-53.93610603 91.63597602 -46.8263891 97.52637801 -35.7421875 101.8515625 C-25.35075597 105.2331317 -11.97897172 105.41017975 -1.9453125 100.76171875 C3.25900624 97.99584737 7.04029053 94.96059974 10.6796875 90.32421875 C12.35546875 88.28125 12.35546875 88.28125 14.0546875 86.76171875 C17.8671875 86.51171875 17.8671875 86.51171875 21.0546875 87.76171875 C23.61162409 90.54099765 23.35300106 93.97136875 23.23828125 97.62890625 C22.17107318 110.02668516 15.61903868 119.18247304 7.0546875 127.76171875 C6.48878906 128.33921875 5.92289063 128.91671875 5.33984375 129.51171875 C-10.76688344 144.63392716 -33.11868869 145.35497538 -53.79931641 144.88476562 C-72.9101687 144.13729787 -89.36714856 134.12068816 -102.1953125 120.38671875 C-111.76637786 109.10933641 -116.86828209 97.10812803 -119.9453125 82.76171875 C-120.22568359 81.45654297 -120.22568359 81.45654297 -120.51171875 80.125 C-123.45090326 57.32646065 -119.84421636 35.46776229 -105.9453125 16.76171875 C-80.01599938 -15.19198737 -34.04601865 -25.87316802 0 0 Z " fill="#671F23" transform="translate(1268.9453125,580.23828125)"/>
<path d="M0 0 C9.1036564 7.51775981 15.21790503 17.13257073 17.58203125 28.73828125 C17.68515625 29.93453125 17.78828125 31.13078125 17.89453125 32.36328125 C17.9821875 33.11351562 18.06984375 33.86375 18.16015625 34.63671875 C18.72964274 42.84250131 15.61534416 48.99414487 10.34765625 55.1796875 C-4.40411298 68.13823708 -39.1374363 73.51807638 -58.10546875 76.36328125 C-53.41899143 86.14375566 -45.29560222 92.43703233 -35.203125 96.04296875 C-24.23580633 99.11634404 -11.79157895 98.76702115 -1.5546875 93.78125 C2.41737485 91.48163496 5.52600356 89.17314985 8.3359375 85.45703125 C9.77455291 83.56391854 11.07210928 81.89321574 12.89453125 80.36328125 C16.64453125 80.23828125 16.64453125 80.23828125 19.89453125 81.36328125 C22.78857175 85.704342 22.55739553 89.26751206 21.89453125 94.36328125 C19.51467028 102.54405334 15.52078217 109.04810165 9.89453125 115.36328125 C9.28351563 116.11351562 8.6725 116.86375 8.04296875 117.63671875 C1.80934298 124.68865833 -5.82690403 127.98042818 -14.34716797 131.54467773 C-16.38128392 132.43760232 -16.38128392 132.43760232 -19.10546875 134.36328125 C-39.15730071 139.83490253 -62.42497081 137.77605862 -80.65454102 127.84960938 C-96.30846189 118.62940621 -108.22714516 103.80587275 -112.89599609 86.20507812 C-118.70243119 62.93588454 -117.37357649 40.07907951 -105.16796875 18.98828125 C-94.1626177 2.52789689 -77.91319157 -9.05056981 -58.66796875 -13.88671875 C-37.73392923 -17.55182662 -16.86772311 -13.11238587 0 0 Z " fill="#661E22" transform="translate(1023.10546875,379.63671875)"/>
<path d="M0 0 C6.07456725 5.25244537 8.3540667 11.17894297 10.078125 18.796875 C11.29145508 18.75143555 11.29145508 18.75143555 12.52929688 18.70507812 C30.71952037 18.04857367 48.9115586 17.65251617 67.11376953 17.56469727 C69.19241983 17.55294347 71.27104808 17.53597071 73.34960938 17.51342773 C92.43086181 17.31787261 112.90100916 17.69587407 128.078125 30.796875 C129.2846875 31.725 129.2846875 31.725 130.515625 32.671875 C132.85085227 35.84778409 133.25717477 38.89670395 133.078125 42.796875 C131.56137141 46.96794738 129.11991724 48.71134097 125.29492188 50.82910156 C120.84842044 52.77028347 116.08056292 53.44865095 111.328125 54.296875 C109.07135785 54.71868078 106.81484869 55.14186916 104.55859375 55.56640625 C102.89836182 55.87505615 102.89836182 55.87505615 101.20458984 56.18994141 C98.49506808 56.71593478 95.81412235 57.29701956 93.12890625 57.93359375 C81.82295347 60.60197374 70.67310574 61.60616241 59.08984375 62.3671875 C54.56116167 62.66951761 50.12812312 63.12555768 45.640625 63.796875 C36.46577899 65.13291628 27.22437898 65.64568044 17.98046875 66.296875 C11.86046296 66.73056953 5.75098821 67.24545067 -0.359375 67.796875 C-21.00435167 69.63278087 -41.68286868 70.95383405 -62.3762207 72.09960938 C-70.6300919 72.55454207 -70.6300919 72.55454207 -78.859375 73.3203125 C-86.14489798 74.09589735 -93.47743266 74.18001629 -100.796875 74.359375 C-101.61215668 74.38022156 -102.42743835 74.40106812 -103.26742554 74.42254639 C-119.25508425 74.82063991 -135.24230239 74.90517144 -151.234375 74.921875 C-152.40135925 74.9244632 -153.56834351 74.92705139 -154.77069092 74.92971802 C-158.08804439 74.93553855 -161.40530219 74.93401264 -164.72265625 74.9296875 C-166.22777016 74.93265587 -166.22777016 74.93265587 -167.76329041 74.9356842 C-168.67969803 74.93257736 -169.59610565 74.92947052 -170.5402832 74.92626953 C-171.34198441 74.92547394 -172.14368561 74.92467834 -172.96968079 74.92385864 C-174.921875 74.796875 -174.921875 74.796875 -176.921875 73.796875 C-178.32437926 68.29474289 -177.76973064 65.61965661 -174.921875 60.796875 C-169.19886868 54.49631758 -162.38997734 49.79296485 -154.921875 45.796875 C-154.24898437 45.41402344 -153.57609375 45.03117187 -152.8828125 44.63671875 C-150.921875 43.796875 -150.921875 43.796875 -146.921875 43.796875 C-146.921875 43.136875 -146.921875 42.476875 -146.921875 41.796875 C-142.73552 40.55520112 -138.54767095 39.3194478 -134.35546875 38.09765625 C-131.92220971 37.38827352 -129.49967883 36.66388611 -127.08203125 35.90234375 C-120.07903697 33.77988033 -112.94585788 32.83661483 -105.70800781 31.88623047 C-101.41034512 31.31939053 -97.1760004 30.6732039 -92.93359375 29.77734375 C-87.74595756 28.70437335 -82.5693467 28.14208081 -77.296875 27.671875 C-76.40742188 27.58550781 -75.51796875 27.49914062 -74.6015625 27.41015625 C-69.34999616 26.92361407 -64.19537127 26.71082728 -58.921875 26.796875 C-58.98375 25.683125 -59.045625 24.569375 -59.109375 23.421875 C-59.00950274 13.96730127 -55.87658177 7.69813377 -49.3203125 0.9296875 C-46.07018541 -1.96049067 -43.01630653 -3.78328181 -38.921875 -5.203125 C-37.74625 -5.615625 -36.570625 -6.028125 -35.359375 -6.453125 C-22.60220291 -9.25163508 -10.61147231 -7.49481611 0 0 Z " fill="#681F23" transform="translate(376.921875,397.203125)"/>
<path d="M0 0 C3.58289783 2.80454764 4.88213469 4.21499166 5.56762695 8.78051758 C5.56684241 10.23542901 5.5390037 11.69050404 5.48828125 13.14453125 C5.48120651 13.91431808 5.47413177 14.68410492 5.46684265 15.47721863 C5.43896925 17.92332303 5.37625137 20.36709384 5.3125 22.8125 C5.28740768 24.47587827 5.26459613 26.13929262 5.24414062 27.80273438 C5.18916671 31.86938157 5.10294927 35.93429589 5 40 C5.95366455 39.98952637 6.9073291 39.97905273 7.88989258 39.96826172 C11.42891688 39.93205499 14.9679248 39.90909716 18.50708008 39.89013672 C20.03868361 39.88008065 21.57026795 39.866434 23.10180664 39.84912109 C25.30359636 39.82485502 27.50513219 39.81351312 29.70703125 39.8046875 C30.39150833 39.79436493 31.07598541 39.78404236 31.78120422 39.77340698 C35.43061661 39.77254618 36.87148502 39.91432334 40 42 C40.30279086 44.92104126 40.41810841 47.58299784 40.375 50.5 C40.38660156 51.28503906 40.39820313 52.07007813 40.41015625 52.87890625 C40.3984375 55.15625 40.3984375 55.15625 40 59 C36.40555817 61.39629455 33.85138348 61.25781331 29.70703125 61.1953125 C29.00100266 61.1924826 28.29497406 61.18965271 27.56755066 61.18673706 C25.31569367 61.17555464 23.06423648 61.1504542 20.8125 61.125 C19.28451096 61.11496767 17.75651567 61.10584226 16.22851562 61.09765625 C12.48552337 61.07562172 8.74282944 61.04110567 5 61 C5.06120791 72.51796292 5.13831202 84.0356992 5.23571491 95.55341625 C5.28044345 100.90156231 5.3196942 106.24963175 5.34643555 111.59790039 C5.37244359 116.75923085 5.41282853 121.92026686 5.46318626 127.08141518 C5.47987185 129.05054373 5.49137558 131.01972322 5.49761391 132.98891258 C5.50723651 135.74707282 5.53527385 138.50447688 5.56762695 141.26245117 C5.56619186 142.07669052 5.56475677 142.89092987 5.5632782 143.72984314 C5.63951597 148.32505173 6.15918709 151.33581958 9 155 C11.94211228 157.28830955 15.09801552 157.40780362 18.76953125 157.33203125 C22.84279815 156.72567803 26.37124312 154.87460677 30 153 C32.84083641 151.57958179 34.85477278 151.68547728 38 152 C40.375 153.5625 40.375 153.5625 42 156 C43.22627765 163.66423534 39.65632046 170.96621277 35.3125 177.125 C26.54664278 188.06018552 14.98608153 195.67762401 0.85791016 197.23632812 C-13.33357069 198.21185737 -25.52984924 195.80830143 -37 187 C-37.86625 186.4225 -38.7325 185.845 -39.625 185.25 C-48.82504666 176.53416632 -54.49589181 162.82133795 -55.08854866 150.09918785 C-55.12298442 147.75845334 -55.12362987 145.4198272 -55.11352539 143.07885742 C-55.11367142 142.19055237 -55.11381744 141.30224731 -55.1139679 140.38702393 C-55.11327293 137.45981376 -55.1055 134.53266775 -55.09765625 131.60546875 C-55.09579059 129.57237279 -55.09436739 127.53927638 -55.09336853 125.50617981 C-55.08955499 120.16161859 -55.07973462 114.81708464 -55.06866455 109.47253418 C-55.05842543 104.01619842 -55.05386555 98.55985823 -55.04882812 93.10351562 C-55.03811132 82.40233178 -55.02104885 71.70116816 -55 61 C-56.03640625 61.05800781 -57.0728125 61.11601563 -58.140625 61.17578125 C-59.51037156 61.22269038 -60.88016692 61.26818932 -62.25 61.3125 C-62.93191406 61.35439453 -63.61382813 61.39628906 -64.31640625 61.43945312 C-66.328125 61.48828125 -66.328125 61.48828125 -70 61 C-72.67370286 58.43708005 -73.821374 56.91414483 -74.53125 53.28125 C-74.5209375 52.3634375 -74.510625 51.445625 -74.5 50.5 C-74.5103125 49.5821875 -74.520625 48.664375 -74.53125 47.71875 C-73.82395094 44.09904303 -72.72810994 42.48009994 -70 40 C-66.75 39.46875 -66.75 39.46875 -63 39.5 C-55.44102154 39.31093376 -49.66751835 37.52177035 -43 34 C-42.05253906 33.505 -41.10507813 33.01 -40.12890625 32.5 C-29.53765687 26.38909883 -23.31744902 17.27627327 -17.703125 6.62890625 C-13.5079597 0.15334146 -7.48179591 -2.60355535 0 0 Z " fill="#671E23" transform="translate(1107,529)"/>
<path d="M0 0 C7.11451818 6.70834863 11.03943568 15.09120343 11.45703125 24.78369141 C11.6262344 33.0188855 10.78303984 38.86287183 5.0625 45.25 C0.84112445 49.32898788 -2.9217295 51.9993429 -8.9375 52.25 C-10.195625 52.3325 -11.45375 52.415 -12.75 52.5 C-18.24317883 52.38446469 -23.4925503 51.3143925 -27.76953125 47.703125 C-34.10632346 40.73419537 -34.16699242 33.91813978 -33.77148438 24.97070312 C-33.63930739 19.57879372 -34.36542218 16.02498683 -36.9375 11.25 C-40.82439289 7.73328739 -44.50064321 6.43903239 -49.63671875 6.09375 C-55.28280108 6.47718513 -59.41562775 9.38202833 -63.1875 13.4375 C-72.94714734 25.90226698 -73.16415255 42.21347188 -71.625 57.31640625 C-69.97264849 66.74366176 -65.52562458 74.59791986 -59.9375 82.25 C-59.48632812 82.88035156 -59.03515625 83.51070313 -58.5703125 84.16015625 C-53.30754238 90.92445118 -45.82350913 95.53901966 -37.35546875 97.0078125 C-25.8242835 98.1627939 -15.48401802 97.28427644 -5.9375 90.25 C-4.52177851 88.68165426 -3.14676233 87.07570626 -1.8125 85.4375 C1.6028704 81.34041894 1.6028704 81.34041894 5.875 80.5 C9.21192772 81.28515946 10.0965663 81.56496371 12.0625 84.25 C14.05107426 97.40968261 8.15380989 106.97670015 0.875 117.375 C-2.95737995 121.76206652 -8.0479343 125.14776347 -12.9375 128.25 C-13.5975 128.25 -14.2575 128.25 -14.9375 128.25 C-14.9375 128.91 -14.9375 129.57 -14.9375 130.25 C-16.93505909 131.04780561 -18.93568885 131.83792425 -20.9375 132.625 C-22.05125 133.06585938 -23.165 133.50671875 -24.3125 133.9609375 C-40.80719802 139.82650899 -59.48299269 138.89524716 -75.9375 133.25 C-77.01128906 132.88777344 -78.08507812 132.52554688 -79.19140625 132.15234375 C-96.48339198 125.63748323 -109.22175497 112.2874407 -117.1875 95.875 C-125.70648546 74.8345747 -123.38487819 51.85633489 -115.3125 31.125 C-106.67911765 12.00041884 -91.55945888 -2.23855919 -72.37109375 -10.53125 C-48.2609044 -19.08913291 -20.12272302 -16.3121077 0 0 Z " fill="#671E22" transform="translate(718.9375,378.75)"/>
<path d="M0 0 C6.79182194 2.52335051 11.48185287 6.67989998 15 13 C17.28108926 19.37035904 17.32803178 29.80601994 14.75 36.125 C11.3861547 41.65131728 7.99798034 44.99032156 2.3125 48.0625 C1.69036621 48.40611572 1.06823242 48.74973145 0.42724609 49.10375977 C-7.01237135 53.16672783 -13.44264705 56.37764706 -22 57 C-25.76413487 41.74181045 -25.90752519 23.95373361 -18.30859375 9.8203125 C-13.56823428 3.22626022 -8.19236944 -0.78022566 0 0 Z " fill="#F8F7F7" transform="translate(1224,587)"/>
<path d="M0 0 C5.1616123 4.87827797 7.66185098 9.39045577 8.3359375 16.5859375 C8.48223405 30.77670325 8.48223405 30.77670325 4 36 C-0.88949754 40.57404608 -7.0404429 46 -14 46 C-14 46.66 -14 47.32 -14 48 C-15.74692795 48.67467562 -17.49768525 49.33944156 -19.25 50 C-20.22453125 50.37125 -21.1990625 50.7425 -22.203125 51.125 C-25 52 -25 52 -29 52 C-33.11295713 37.34759021 -32.14380335 20.43404361 -25.125 6.8125 C-22.49644856 2.43374971 -19.98251631 -0.80699347 -15.125 -2.75 C-9.20982185 -3.44590331 -5.0666806 -3.34185316 0 0 Z " fill="#F8F7F7" transform="translate(986,388)"/>
<path d="M0 0 C0 0.66 0 1.32 0 2 C0.66 2 1.32 2 2 2 C4 5 4 5 4 8 C-4.01396246 8.6466598 -11.95787245 9.16677223 -20 9 C-19.70540991 5.46491897 -19.25118587 4.23796556 -16.625 1.75 C-11.4816438 -1.67890414 -5.85331348 -1.87306031 0 0 Z " fill="#F3EFEF" transform="translate(360,412)"/>
<path d="M0 0 C1.16781006 0.00523682 2.33562012 0.01047363 3.53881836 0.01586914 C4.79887695 0.0190918 6.05893555 0.02231445 7.35717773 0.02563477 C8.6976732 0.03399136 10.03816799 0.04245632 11.37866211 0.05102539 C12.72306153 0.05603879 14.06746271 0.06060197 15.41186523 0.06469727 C18.71334151 0.07653051 22.01473014 0.09301568 25.31616211 0.11352539 C25.31616211 0.77352539 25.31616211 1.43352539 25.31616211 2.11352539 C21.706857 4.5197288 18.9294913 4.43583343 14.75366211 4.55102539 C8.2302215 4.82775505 2.45920349 5.76558409 -3.68383789 8.11352539 C-3.72625512 5.78057764 -3.72476726 3.44649972 -3.68383789 1.11352539 C-2.68383789 0.11352539 -2.68383789 0.11352539 0 0 Z " fill="#EDE7E7" transform="translate(822.683837890625,362.886474609375)"/>
<path d="M0 0 C0.33 0 0.66 0 1 0 C1.38133299 1.9914056 1.71325582 3.99279077 2 6 C1.67 6.33 1.34 6.66 1 7 C0.87619162 9.05478453 0.82201797 11.1137896 0.79467773 13.17211914 C0.78477814 13.81600082 0.77487854 14.45988251 0.76467896 15.12327576 C0.73298472 17.26053131 0.70827551 19.39780913 0.68359375 21.53515625 C0.66303104 23.01346936 0.64203476 24.49177649 0.62062073 25.97007751 C0.56532941 29.86792171 0.51595143 33.76581958 0.46777344 37.66375732 C0.41760981 41.63851723 0.36189699 45.61319884 0.30664062 49.58789062 C0.19897276 57.39186085 0.09754713 65.19589602 0 73 C-0.33 73 -0.66 73 -1 73 C-1.02318774 64.22025904 -1.04094789 55.44052866 -1.05181217 46.66076374 C-1.05702692 42.58380869 -1.064099 38.50687462 -1.07543945 34.42993164 C-1.08631837 30.49420656 -1.09228745 26.55850164 -1.09487724 22.62276268 C-1.09672247 21.12249624 -1.10032572 19.62223088 -1.10573006 18.12197304 C-1.11300691 16.01789607 -1.11398814 13.91390201 -1.11352539 11.80981445 C-1.115746 10.61290482 -1.11796661 9.41599518 -1.12025452 8.18281555 C-1.01236103 5.32716348 -0.65908702 2.77376413 0 0 Z " fill="#D6C0C1" transform="translate(800,412)"/>
<path d="M0 0 C0.66 0 1.32 0 2 0 C3.63711505 12.89228103 3.63711505 12.89228103 3 18 C2.34 18.66 1.68 19.32 1 20 C0.34 20 -0.32 20 -1 20 C-1.02888514 16.85418577 -1.04675923 13.70840531 -1.0625 10.5625 C-1.07087891 9.66466797 -1.07925781 8.76683594 -1.08789062 7.84179688 C-1.09111328 6.98779297 -1.09433594 6.13378906 -1.09765625 5.25390625 C-1.10551147 4.06776733 -1.10551147 4.06776733 -1.11352539 2.85766602 C-1 1 -1 1 0 0 Z " fill="#EEE9E9" transform="translate(393,593)"/>
<path d="M0 0 C1.875 1.5 1.875 1.5 3 3 C-0.10063523 4.03354508 -2.31444068 4.13364996 -5.5625 4.125 C-6.53316406 4.12757813 -7.50382812 4.13015625 -8.50390625 4.1328125 C-11 4 -11 4 -13 3 C-14.37342831 2.9310528 -15.75002102 2.91532292 -17.125 2.9375 C-19.043125 2.9684375 -19.043125 2.9684375 -21 3 C-21 2.67 -21 2.34 -21 2 C-18.62561751 1.6616656 -16.25065041 1.32920998 -13.875 1 C-12.87726563 0.85691406 -12.87726563 0.85691406 -11.859375 0.7109375 C-7.87839942 0.16452909 -4.01694408 -0.23910381 0 0 Z " fill="#DBCBCB" transform="translate(446,458)"/>
<path d="M0 0 C0.33 0 0.66 0 1 0 C1.1953125 2.01822917 1.390625 4.03645833 1.5859375 6.0546875 C1.86374749 8.22668245 1.86374749 8.22668245 4 10 C2.625 12.5 2.625 12.5 1 15 C0.34 15 -0.32 15 -1 15 C-1.33 15.99 -1.66 16.98 -2 18 C-4.31 18.33 -6.62 18.66 -9 19 C-6 17 -6 17 -3 16 C-0.65229357 12.47844036 -0.62330386 10.49228157 -0.375 6.3125 C-0.30023437 5.13300781 -0.22546875 3.95351563 -0.1484375 2.73828125 C-0.09945312 1.83464844 -0.05046875 0.93101562 0 0 Z " fill="#E6D9DA" transform="translate(953,704)"/>
<path d="M0 0 C19.53191489 -0.38297872 19.53191489 -0.38297872 28 2 C28 2.33 28 2.66 28 3 C24.04 3 20.08 3 16 3 C16 2.34 16 1.68 16 1 C10.72 1 5.44 1 0 1 C0 0.67 0 0.34 0 0 Z " fill="#8F595C" transform="translate(1216,566)"/>
<path d="M0 0 C0.33 0 0.66 0 1 0 C1.33 7.59 1.66 15.18 2 23 C1.01 22.67 0.02 22.34 -1 22 C-0.67 14.74 -0.34 7.48 0 0 Z " fill="#ECE3E3" transform="translate(1147,638)"/>
<path d="M0 0 C0.66 0.33 1.32 0.66 2 1 C0.54234835 2.62561151 -0.91614386 4.25046934 -2.375 5.875 C-3.18710938 6.77992188 -3.99921875 7.68484375 -4.8359375 8.6171875 C-6.19076205 10.10896183 -7.57505435 11.57505435 -9 13 C-9.33 12.01 -9.66 11.02 -10 10 C-6.7 6.7 -3.4 3.4 0 0 Z " fill="#743236" transform="translate(1177,582)"/>
<path d="M0 0 C0.33 0 0.66 0 1 0 C1.38133299 1.9914056 1.71325582 3.99279077 2 6 C1.67 6.33 1.34 6.66 1 7 C0.84379445 8.41327947 0.74943827 9.8335459 0.68359375 11.25390625 C0.64169922 12.10791016 0.59980469 12.96191406 0.55664062 13.84179688 C0.51732422 14.73962891 0.47800781 15.63746094 0.4375 16.5625 C0.39431641 17.46419922 0.35113281 18.36589844 0.30664062 19.29492188 C0.20021858 21.52978485 0.09820012 23.76476308 0 26 C-0.33 26 -0.66 26 -1 26 C-1.0291544 22.60418484 -1.04685068 19.20840214 -1.0625 15.8125 C-1.07087891 14.85279297 -1.07925781 13.89308594 -1.08789062 12.90429688 C-1.09111328 11.97294922 -1.09433594 11.04160156 -1.09765625 10.08203125 C-1.10289307 9.22843018 -1.10812988 8.3748291 -1.11352539 7.49536133 C-0.99579323 4.90753253 -0.57107044 2.52338047 0 0 Z " fill="#C8AAAC" transform="translate(800,412)"/>
<path d="M0 0 C0.33 0.99 0.66 1.98 1 3 C4.465 2.505 4.465 2.505 8 2 C8 2.66 8 3.32 8 4 C8.99 4.33 9.98 4.66 11 5 C7.7 5 4.4 5 1 5 C0.67 3.35 0.34 1.7 0 0 Z " fill="#E9DFE0" transform="translate(386,412)"/>
<path d="M0 0 C0.66 0.33 1.32 0.66 2 1 C0.88200014 2.33920838 -0.24461897 3.67122556 -1.375 5 C-2.00148437 5.7425 -2.62796875 6.485 -3.2734375 7.25 C-4.12808594 8.11625 -4.12808594 8.11625 -5 9 C-5.66 9 -6.32 9 -7 9 C-5.44499019 5.18315774 -2.96404505 2.80804268 0 0 Z " fill="#732F33" transform="translate(208,452)"/>
<path d="M0 0 C0.33 0 0.66 0 1 0 C2.03590199 5.05002222 2.10251672 9.87416389 2 15 C1.67 15 1.34 15 1 15 C0.7834375 13.6078125 0.7834375 13.6078125 0.5625 12.1875 C0.07899889 8.99274889 0.07899889 8.99274889 -1 6 C-0.72428861 3.99124558 -0.39764263 1.98821313 0 0 Z " fill="#915B5E" transform="translate(857,607)"/>
<path d="M0 0 C0 0.66 0 1.32 0 2 C-1.2065625 2.6496875 -1.2065625 2.6496875 -2.4375 3.3125 C-5.24282331 4.76787059 -5.24282331 4.76787059 -5.8125 7.6875 C-5.874375 8.450625 -5.93625 9.21375 -6 10 C-6.33 10 -6.66 10 -7 10 C-7.3327958 6.33924624 -7.46170299 4.60499012 -5.1875 1.625 C-3 0 -3 0 0 0 Z " fill="#7F4145" transform="translate(611,586)"/>
<path d="M0 0 C0.68359375 1.796875 0.68359375 1.796875 1 4 C-0.21484375 5.703125 -0.21484375 5.703125 -1.9375 7.25 C-2.50339844 7.77078125 -3.06929687 8.2915625 -3.65234375 8.828125 C-4.09707031 9.21484375 -4.54179688 9.6015625 -5 10 C-5.66 9.67 -6.32 9.34 -7 9 C-6.57847656 8.51789062 -6.15695312 8.03578125 -5.72265625 7.5390625 C-5.17480469 6.90742187 -4.62695312 6.27578125 -4.0625 5.625 C-3.51722656 4.99851562 -2.97195313 4.37203125 -2.41015625 3.7265625 C-0.93041376 2.04367666 -0.93041376 2.04367666 0 0 Z " fill="#E0D0D1" transform="translate(1144,702)"/>
<path d="M0 0 C0.33 1.32 0.66 2.64 1 4 C-0.9375 6.25 -0.9375 6.25 -3 8 C-3.66 7.67 -4.32 7.34 -5 7 C-3.35 4.69 -1.7 2.38 0 0 Z " fill="#753437" transform="translate(892,653)"/>
<path d="M0 0 C-4.77573323 2.61895048 -8.84434881 1.83119431 -14 1 C-14 0.67 -14 0.34 -14 0 C-12.41773035 -0.19627391 -10.83410729 -0.38165538 -9.25 -0.5625 C-8.36828125 -0.66691406 -7.4865625 -0.77132813 -6.578125 -0.87890625 C-4.11567549 -0.99456676 -2.33461936 -0.73638695 0 0 Z " fill="#9A686B" transform="translate(700,477)"/>
<path d="M0 0 C1.11375 0.1546875 1.11375 0.1546875 2.25 0.3125 C1.63125 0.395 1.0125 0.4775 0.375 0.5625 C-1.93437567 1.12508459 -1.93437567 1.12508459 -3 3.375 C-3.2475 4.014375 -3.495 4.65375 -3.75 5.3125 C-4.74 5.3125 -5.73 5.3125 -6.75 5.3125 C-3.42692308 0.38942308 -3.42692308 0.38942308 0 0 Z " fill="#79383C" transform="translate(1038.75,459.6875)"/>
<path d="M0 0 C1.32 0 2.64 0 4 0 C5.75 2 5.75 2 7 4 C4.03 3.67 1.06 3.34 -2 3 C-1.34 2.01 -0.68 1.02 0 0 Z " fill="#E7DCDC" transform="translate(691,363)"/>
<path d="M0 0 C3.36720387 1.39332574 4.9859524 2.9789286 7 6 C3.75728494 5.4409112 2.06942576 4.5867822 0 2 C0 1.34 0 0.68 0 0 Z " fill="#7B3C3F" transform="translate(1129,342)"/>
</svg>
